<mxfile host="Electron" agent="Mozilla/5.0 (Windows NT 10.0; Win64; x64) AppleWebKit/537.36 (KHTML, like Gecko) draw.io/26.2.2 Chrome/134.0.6998.178 Electron/35.1.2 Safari/537.36" version="26.2.2" pages="2">
  <diagram name="MóduloInstructor" id="aYPSQ2_dHzgHZoa334YV">
    <mxGraphModel dx="874" dy="537" grid="1" gridSize="10" guides="1" tooltips="1" connect="1" arrows="1" fold="1" page="1" pageScale="1" pageWidth="827" pageHeight="1169" math="0" shadow="0">
      <root>
        <mxCell id="0" />
        <mxCell id="1" parent="0" />
        <mxCell id="fUQOvOaHK9e-gMhhTY8M-1" value="TheraPose_v1.0 MóduloInstructor" style="shape=umlFrame;whiteSpace=wrap;html=1;pointerEvents=0;recursiveResize=0;container=1;collapsible=0;width=160;fillColor=#dae8fc;strokeColor=#6c8ebf;" vertex="1" parent="1">
          <mxGeometry x="180" y="30" width="580" height="400" as="geometry" />
        </mxCell>
        <mxCell id="fUQOvOaHK9e-gMhhTY8M-5" value="Registrar un nuevo paciente" style="ellipse;whiteSpace=wrap;html=1;fillColor=#dae8fc;strokeColor=#6c8ebf;" vertex="1" parent="fUQOvOaHK9e-gMhhTY8M-1">
          <mxGeometry x="230" y="20" width="190" height="70" as="geometry" />
        </mxCell>
        <mxCell id="fUQOvOaHK9e-gMhhTY8M-8" value="Actualizar datos de un paciente&lt;div&gt;&lt;br&gt;&lt;/div&gt;" style="ellipse;whiteSpace=wrap;html=1;fillColor=#dae8fc;strokeColor=#6c8ebf;" vertex="1" parent="fUQOvOaHK9e-gMhhTY8M-1">
          <mxGeometry x="230" y="120" width="200" height="70" as="geometry" />
        </mxCell>
        <mxCell id="fUQOvOaHK9e-gMhhTY8M-10" value="Eliminar a un paciente" style="ellipse;whiteSpace=wrap;html=1;fillColor=#dae8fc;strokeColor=#6c8ebf;" vertex="1" parent="fUQOvOaHK9e-gMhhTY8M-1">
          <mxGeometry x="234" y="210" width="165" height="70" as="geometry" />
        </mxCell>
        <mxCell id="fUQOvOaHK9e-gMhhTY8M-12" value="Crear serie terapéutica" style="ellipse;whiteSpace=wrap;html=1;fillColor=#dae8fc;strokeColor=#6c8ebf;" vertex="1" parent="fUQOvOaHK9e-gMhhTY8M-1">
          <mxGeometry x="234" y="300" width="176" height="80" as="geometry" />
        </mxCell>
        <mxCell id="fUQOvOaHK9e-gMhhTY8M-2" value="Actor" style="shape=umlActor;verticalLabelPosition=bottom;verticalAlign=top;html=1;outlineConnect=0;fillColor=#dae8fc;strokeColor=#6c8ebf;" vertex="1" parent="1">
          <mxGeometry x="100" y="220" width="30" height="60" as="geometry" />
        </mxCell>
        <mxCell id="fUQOvOaHK9e-gMhhTY8M-6" value="" style="endArrow=none;html=1;rounded=0;entryX=0.033;entryY=0.76;entryDx=0;entryDy=0;entryPerimeter=0;exitX=1;exitY=0.3333333333333333;exitDx=0;exitDy=0;exitPerimeter=0;" edge="1" parent="1" source="fUQOvOaHK9e-gMhhTY8M-2" target="fUQOvOaHK9e-gMhhTY8M-5">
          <mxGeometry width="50" height="50" relative="1" as="geometry">
            <mxPoint x="390" y="310" as="sourcePoint" />
            <mxPoint x="440" y="260" as="targetPoint" />
          </mxGeometry>
        </mxCell>
        <mxCell id="fUQOvOaHK9e-gMhhTY8M-9" value="" style="endArrow=none;html=1;rounded=0;exitX=0.02;exitY=0.6;exitDx=0;exitDy=0;exitPerimeter=0;" edge="1" parent="1" source="fUQOvOaHK9e-gMhhTY8M-8" target="fUQOvOaHK9e-gMhhTY8M-2">
          <mxGeometry width="50" height="50" relative="1" as="geometry">
            <mxPoint x="390" y="310" as="sourcePoint" />
            <mxPoint x="440" y="260" as="targetPoint" />
          </mxGeometry>
        </mxCell>
        <mxCell id="fUQOvOaHK9e-gMhhTY8M-11" value="" style="endArrow=none;html=1;rounded=0;exitX=0;exitY=0.5;exitDx=0;exitDy=0;" edge="1" parent="1" source="fUQOvOaHK9e-gMhhTY8M-10" target="fUQOvOaHK9e-gMhhTY8M-2">
          <mxGeometry width="50" height="50" relative="1" as="geometry">
            <mxPoint x="390" y="310" as="sourcePoint" />
            <mxPoint x="440" y="260" as="targetPoint" />
          </mxGeometry>
        </mxCell>
        <mxCell id="fUQOvOaHK9e-gMhhTY8M-13" value="" style="endArrow=none;html=1;rounded=0;exitX=0;exitY=0.5;exitDx=0;exitDy=0;" edge="1" parent="1" source="fUQOvOaHK9e-gMhhTY8M-12" target="fUQOvOaHK9e-gMhhTY8M-2">
          <mxGeometry width="50" height="50" relative="1" as="geometry">
            <mxPoint x="390" y="310" as="sourcePoint" />
            <mxPoint x="440" y="260" as="targetPoint" />
          </mxGeometry>
        </mxCell>
      </root>
    </mxGraphModel>
  </diagram>
  <diagram id="rfHGyHV1HqEHZhSwV3h6" name="MóduloPaciente">
    <mxGraphModel dx="874" dy="537" grid="1" gridSize="10" guides="1" tooltips="1" connect="1" arrows="1" fold="1" page="1" pageScale="1" pageWidth="827" pageHeight="1169" math="0" shadow="0">
      <root>
        <mxCell id="0" />
        <mxCell id="1" parent="0" />
        <mxCell id="NzqX-g0uLQPsnRgkk8Ft-1" value="TheraPose_v1.0 MóduloPaciente" style="shape=umlFrame;whiteSpace=wrap;html=1;pointerEvents=0;recursiveResize=0;container=1;collapsible=0;width=160;fillColor=#d5e8d4;strokeColor=#82b366;" vertex="1" parent="1">
          <mxGeometry x="180" y="20" width="510" height="310" as="geometry" />
        </mxCell>
        <mxCell id="NzqX-g0uLQPsnRgkk8Ft-2" value="Registrar un nuevo paciente" style="ellipse;whiteSpace=wrap;html=1;fillColor=#d5e8d4;strokeColor=#82b366;" vertex="1" parent="NzqX-g0uLQPsnRgkk8Ft-1">
          <mxGeometry x="195" y="90" width="190" height="70" as="geometry" />
        </mxCell>
        <mxCell id="NzqX-g0uLQPsnRgkk8Ft-6" value="Paciente&lt;div&gt;&lt;br&gt;&lt;/div&gt;" style="shape=umlActor;verticalLabelPosition=bottom;verticalAlign=top;html=1;outlineConnect=0;fillColor=#d5e8d4;strokeColor=#82b366;" vertex="1" parent="1">
          <mxGeometry x="120" y="145" width="30" height="60" as="geometry" />
        </mxCell>
        <mxCell id="NzqX-g0uLQPsnRgkk8Ft-8" value="" style="endArrow=none;html=1;rounded=0;entryX=0;entryY=0.5;entryDx=0;entryDy=0;" edge="1" parent="1" source="NzqX-g0uLQPsnRgkk8Ft-6" target="NzqX-g0uLQPsnRgkk8Ft-2">
          <mxGeometry width="50" height="50" relative="1" as="geometry">
            <mxPoint x="390" y="310" as="sourcePoint" />
            <mxPoint x="440" y="260" as="targetPoint" />
          </mxGeometry>
        </mxCell>
      </root>
    </mxGraphModel>
  </diagram>
</mxfile>
